<svg xmlns="http://www.w3.org/2000/svg" viewBox="0 0 80 80"><path class="frame" fill="#fff" d="M77.4 0H0v80h80V0h-2.6zM5.6 74.4V5.6h68.9v68.9l-68.9z"></path><path class="typo" fill="#fff" d="M61.4 10.6c-4.4 0-8.1 3.6-8.1 8v50.8h5.6V42.8h5v26.7h5.6v-50.8c0-4.4-3.6-8-8.1-8zm-2.5 26.6v-18.6c0-1.5 1-2.7 2.5-2.7 1.5 0 2.5 1.2 2.5 2.7v18.6l-5 0zM37.4 64V48h2.7a2.7 2.7 0 0 1 2.7 2.7v10.7a2.7 2.7 0 0 1-2.7 2.7m8-13.3a8 8 0 0 0-8-8h-8V69.3h8m0 0a8 8 0 0 0 8-8V50.6M40 10.6c-4.4 0-7.8 3.6-7.8 8v18.6h5v-7.8h5.6v7.8h5v-18.6c0-4.4-3.4-8-7.8-8zm-2.8 13.3v-5.3c0-1.5 1.3-2.7 2.8-2.7 1.5 0 2.8 1.2 2.8 2.7v5.3h-5.6zM16 64v-48h2.7a2.7 2.7 0 0 1 2.7 2.7v42.7a2.7 2.7 0 0 1-2.7 2.7m8-45.3c0-4.4-3.6-8-8-8H10.7v58.7h8a8 8 0 0 0 8-8l0-42.7"></path></svg>